<?xml version="1.0"?>
<svg xmlns="http://www.w3.org/2000/svg" xmlns:xlink="http://www.w3.org/1999/xlink" xmlns:svgjs="http://svgjs.com/svgjs" version="1.1" width="512" height="512" x="0" y="0" viewBox="0 0 60 60" style="enable-background:new 0 0 512 512" xml:space="preserve" class=""><g><path xmlns="http://www.w3.org/2000/svg" d="m7 42v-35a2.006 2.006 0 0 1 2-2h42a2.006 2.006 0 0 1 2 2v35z" fill="#3f78be" data-original="#292d60" class=""/><rect xmlns="http://www.w3.org/2000/svg" fill="#3eecfd" height="28" rx="1" width="38" x="11" y="9" data-original="#3b437f" class=""/><path xmlns="http://www.w3.org/2000/svg" d="m59 51v3a1 1 0 0 1 -1 1h-56a1 1 0 0 1 -1-1v-3l1-1h56z" fill="#8bc1c6" data-original="#c0dadc" class=""/><path xmlns="http://www.w3.org/2000/svg" d="m59 51h-58l6-10h46z" fill="#d4e6e7" data-original="#d4e6e7" class=""/><path xmlns="http://www.w3.org/2000/svg" d="m19 51 1.749-4.371a1 1 0 0 1 .928-.629h16.646a1 1 0 0 1 .928.629l1.749 4.371z" fill="#aac7c8" data-original="#aac7c8" class=""/><path xmlns="http://www.w3.org/2000/svg" d="m35 34h-10a1 1 0 0 1 0-2h10a1 1 0 0 1 0 2z" fill="#113656" data-original="#ffffff" class=""/><path xmlns="http://www.w3.org/2000/svg" d="m33 30h-8a1 1 0 0 1 0-2h8a1 1 0 0 1 0 2z" fill="#113656" data-original="#ffffff" class=""/><path xmlns="http://www.w3.org/2000/svg" d="m35 14h-10a1 1 0 0 1 0-2h10a1 1 0 0 1 0 2z" fill="#113656" data-original="#ffffff" class=""/><path xmlns="http://www.w3.org/2000/svg" d="m34 18h-6a1 1 0 0 1 0-2h6a1 1 0 0 1 0 2z" fill="#104b92" data-original="#fbdd4d" class=""/><path xmlns="http://www.w3.org/2000/svg" d="m45 18h-7a1 1 0 0 1 0-2h7a1 1 0 0 1 0 2z" fill="#3f78be" data-original="#5762a3" class=""/><path xmlns="http://www.w3.org/2000/svg" d="m34 26h-6a1 1 0 0 1 0-2h6a1 1 0 0 1 0 2z" fill="#104b92" data-original="#fbdd4d" class=""/><path xmlns="http://www.w3.org/2000/svg" d="m45 26h-7a1 1 0 0 1 0-2h7a1 1 0 0 1 0 2z" fill="#3f78be" data-original="#5762a3" class=""/><path xmlns="http://www.w3.org/2000/svg" d="m33 22h-6a1 1 0 0 1 0-2h6a1 1 0 0 1 0 2z" fill="#104b92" data-original="#fbdd4d" class=""/><path xmlns="http://www.w3.org/2000/svg" d="m44 22h-7a1 1 0 0 1 0-2h7a1 1 0 0 1 0 2z" fill="#3f78be" data-original="#5762a3" class=""/><path xmlns="http://www.w3.org/2000/svg" d="m21 34a1 1 0 0 1 -1-1v-20a1 1 0 0 1 2 0v20a1 1 0 0 1 -1 1z" fill="#3f78be" data-original="#292d60" class=""/><g xmlns="http://www.w3.org/2000/svg" fill="#fff"><path d="m17 14h-2a1 1 0 0 1 0-2h2a1 1 0 0 1 0 2z" fill="#113656" data-original="#ffffff" class=""/><path d="m17 18h-2a1 1 0 0 1 0-2h2a1 1 0 0 1 0 2z" fill="#113656" data-original="#ffffff" class=""/><path d="m17 22h-2a1 1 0 0 1 0-2h2a1 1 0 0 1 0 2z" fill="#113656" data-original="#ffffff" class=""/><path d="m17 26h-2a1 1 0 0 1 0-2h2a1 1 0 0 1 0 2z" fill="#113656" data-original="#ffffff" class=""/><path d="m17 30h-2a1 1 0 0 1 0-2h2a1 1 0 0 1 0 2z" fill="#113656" data-original="#ffffff" class=""/><path d="m17 34h-2a1 1 0 0 1 0-2h2a1 1 0 0 1 0 2z" fill="#113656" data-original="#ffffff" class=""/></g></g></svg>
