<?xml version="1.0"?>
<svg xmlns="http://www.w3.org/2000/svg" xmlns:xlink="http://www.w3.org/1999/xlink" xmlns:svgjs="http://svgjs.com/svgjs" version="1.1" width="512" height="512" x="0" y="0" viewBox="0 0 64 64" style="enable-background:new 0 0 512 512" xml:space="preserve" class=""><g><g xmlns="http://www.w3.org/2000/svg" id="Fill_Outline" data-name="Fill Outline"><g id="Color"><path d="m7 30h6v4h-6z" fill="#93999a" data-original="#93999a"/><path d="m13 30v4h-6v-4h2v1a1 1 0 0 0 2 0v-1z" fill="#656b76" data-original="#656b76"/><path d="m55 26h-4l-5-11h-22l-3 7-8 2v16l6 1 5 8h27v-11h4z" fill="#e9f1f2" data-original="#e9f1f2"/><path d="m55 26v12h-4v11h-27l-5-8-6-1v-16l8-2 3-7h8.23l-3.75 9.76a7.059 7.059 0 0 0 -.48 2.57v7.51a7.15 7.15 0 0 0 4.9 6.79 6.952 6.952 0 0 0 2.26.37h6.34a6.5 6.5 0 0 0 6.5-6.5 1.5 1.5 0 0 1 1.5-1.5 1.5 1.5 0 0 0 1.5-1.5v-6.5z" fill="#d0d8da" data-original="#d0d8da"/><g fill="#84d2f4"><path d="m55 21h2a4 4 0 0 1 4 4v14a4 4 0 0 1 -4 4h-2a0 0 0 0 1 0 0v-22a0 0 0 0 1 0 0z" fill="#84d2f4" data-original="#84d2f4"/><path d="m3 21a4 4 0 0 1 4 4v18a0 0 0 0 1 0 0 4 4 0 0 1 -4-4v-18a0 0 0 0 1 0 0z" fill="#84d2f4" data-original="#84d2f4"/><path d="m29 5h16a0 0 0 0 1 0 0 4 4 0 0 1 -4 4h-16a0 0 0 0 1 0 0 4 4 0 0 1 4-4z" fill="#84d2f4" data-original="#84d2f4"/></g><path d="m33 9h4v6h-4z" fill="#93999a" data-original="#93999a"/><path d="m37.96 26a5.976 5.976 0 0 0 -.1-1.094l1.167-.674-2-3.464-1.167.674a5.981 5.981 0 0 0 -1.9-1.093v-1.349h-4v1.349a5.987 5.987 0 0 0 -1.895 1.093l-1.165-.674-2 3.464 1.167.674a5.752 5.752 0 0 0 0 2.188l-1.167.674 2 3.464 1.167-.674a5.987 5.987 0 0 0 1.895 1.093v1.349h4v-1.349a5.981 5.981 0 0 0 1.9-1.093l1.167.674 2-3.464-1.167-.674a5.976 5.976 0 0 0 .098-1.094zm-6 2a2 2 0 1 1 2-2 2 2 0 0 1 -2 2z" fill="#04415e" data-original="#f9e109" class=""/><path d="m46.8 37.157a4.924 4.924 0 0 0 -.055-.546l1.255-.722-2-3.464-1.242.717a4.934 4.934 0 0 0 -.954-.563v-1.422h-4v1.422a4.934 4.934 0 0 0 -.954.563l-1.242-.717-2 3.464 1.251.722a4.924 4.924 0 0 0 -.055.546 4.882 4.882 0 0 0 .055.545l-1.251.723 2 3.464 1.242-.717a4.93 4.93 0 0 0 .954.562v1.423h4v-1.423a4.93 4.93 0 0 0 .954-.562l1.242.717 2-3.464-1.251-.725a4.882 4.882 0 0 0 .051-.543zm-5 2a2 2 0 1 1 2-2 2 2 0 0 1 -2 2z" fill="#04415e" data-original="#f9e109" class=""/><circle cx="28" cy="40" fill="#656b76" r="4" data-original="#656b76"/><path d="m31.83 41.17a4 4 0 1 1 -3.83-5.17h.09a7.166 7.166 0 0 0 3.74 5.17z" fill="#464a51" data-original="#464a51" class=""/><path d="m24.9 27.77 1.16-.68a5.991 5.991 0 0 1 0-2.18l-1.16-.68 2-3.46 1.17.67a6.026 6.026 0 0 1 1.89-1.09v-1.35h.73l-2.21 5.76a7.059 7.059 0 0 0 -.48 2.57v3.27l-1.1.63z" fill="#04415e" data-original="#fcbc04" class=""/><path d="m47.45 38.11.55.31-2 3.47-1.24-.72a4.823 4.823 0 0 1 -.96.56v1.43h-4v-1.16h1.7a6.491 6.491 0 0 0 5.95-3.89z" fill="#04415e" data-original="#fcbc04" class=""/><path d="m61 39a4 4 0 0 1 -4 4h-2v-22h2a3.657 3.657 0 0 1 1 .13v14.87a3 3 0 0 0 3 3z" fill="#57b7eb" data-original="#57b7eb" class=""/><path d="m44.46 7a4.225 4.225 0 0 1 -.63.83 4.025 4.025 0 0 1 -2.83 1.17h-16a3.995 3.995 0 0 1 4-4 2.006 2.006 0 0 0 2 2z" fill="#57b7eb" data-original="#57b7eb" class=""/><path d="m7 40.82v2.18a4 4 0 0 1 -4-4v-18a3.989 3.989 0 0 1 2 .54v16.46a2.968 2.968 0 0 0 2 2.82z" fill="#57b7eb" data-original="#57b7eb" class=""/><path d="m53 26v8a2 2 0 0 1 -2 2v2h4v-12z" fill="#93999a" data-original="#93999a"/><path d="m37 9v2a2.006 2.006 0 0 0 -2 2v2h-2v-6z" fill="#656b76" data-original="#656b76"/></g><g id="Outline_copy" fill="#323232" data-name="Outline copy"><path d="m42 48h-17.446l-4.706-7.53a1 1 0 0 0 -.683-.456l-5.165-.861v-2.153h3a1 1 0 0 0 0-2h-3v-2h3a1 1 0 0 0 0-2h-3v-2h3a1 1 0 0 0 0-2h-3v-2.219l7.243-1.811a1 1 0 0 0 .676-.576l2.74-6.394h12.341a1 1 0 0 0 1-1v-5h3a5.006 5.006 0 0 0 5-5 1 1 0 0 0 -1-1h-16a5.006 5.006 0 0 0 -5 5 1 1 0 0 0 1 1h7v4h-8a1 1 0 0 0 -.919.606l-2.8 6.544-7.519 1.88a1 1 0 0 0 -.762.97v5h-4v-4a5.006 5.006 0 0 0 -5-5 1 1 0 0 0 -1 1v5a1 1 0 0 0 2 0v-3.829a3.006 3.006 0 0 1 2 2.829v16.829a3.006 3.006 0 0 1 -2-2.829v-9a1 1 0 0 0 -2 0v9a5.006 5.006 0 0 0 5 5 1 1 0 0 0 1-1v-8h4v5a1 1 0 0 0 .835.986l5.556.926 4.761 7.618a1 1 0 0 0 .848.47h18a1 1 0 0 0 0-2zm-13-42h14.829a3.006 3.006 0 0 1 -2.829 2h-14.829a3.006 3.006 0 0 1 2.829-2zm5 4h2v4h-2zm-26 23v-2h4v2z" fill="#000000" data-original="#323232" class=""/><path d="m57 20h-2a1 1 0 0 0 -1 1v1a1 1 0 0 0 2 0h1a3 3 0 0 1 3 3v14a3 3 0 0 1 -3 3h-1v-16a1 1 0 0 0 -1-1h-3.356l-4.734-10.414a1 1 0 0 0 -.91-.586h-5a1 1 0 0 0 0 2h4.356l4.734 10.414a1 1 0 0 0 .91.586h3v2h-2a1 1 0 0 0 0 2h2v2h-2a1 1 0 0 0 0 2h2v2h-3a1 1 0 0 0 -1 1v10h-4a1 1 0 0 0 0 2h5a1 1 0 0 0 1-1v-10h2v4a1 1 0 0 0 1 1h2a5.006 5.006 0 0 0 5-5v-14a5.006 5.006 0 0 0 -5-5z" fill="#000000" data-original="#323232" class=""/><path d="m28.96 26a3 3 0 1 0 3-3 3 3 0 0 0 -3 3zm4 0a1 1 0 1 1 -1-1 1 1 0 0 1 1 1z" fill="#000000" data-original="#323232" class=""/><path d="m46.866 42.389 2-3.464a1 1 0 0 0 -.366-1.366l-.7-.4.7-.4a1 1 0 0 0 .366-1.366l-2-3.464a1 1 0 0 0 -1.366-.366l-.7.4v-.8a1 1 0 0 0 -1-1h-4a1 1 0 0 0 -1 1v.8l-.433-.249-.451-.919a.992.992 0 0 0 -.4-.426l-1.167-.674a1 1 0 0 0 -1.149.106 4.972 4.972 0 0 1 -1.58.91 1 1 0 0 0 -.666.943v.346h-2v-.349a1 1 0 0 0 -.666-.943 4.972 4.972 0 0 1 -1.58-.91 1 1 0 0 0 -1.149-.106l-.3.174-1-1.732.3-.174a1 1 0 0 0 .483-1.048 4.77 4.77 0 0 1 0-1.824 1 1 0 0 0 -.483-1.048l-.3-.174 1-1.732.3.174a1 1 0 0 0 1.15-.106 4.957 4.957 0 0 1 1.579-.91 1 1 0 0 0 .666-.943v-.349h2v.349a1 1 0 0 0 .666.943 4.957 4.957 0 0 1 1.579.91 1 1 0 0 0 1.15.106l.3-.174 1 1.732-.3.174a1 1 0 0 0 -.483 1.047 4.834 4.834 0 0 1 0 1.826 1 1 0 0 0 .483 1.047l1.166.674a1 1 0 1 0 1-1.732l-.586-.339c.016-.19.024-.378.024-.563s-.008-.373-.024-.563l.586-.339a1 1 0 0 0 .367-1.366l-2-3.464a1.007 1.007 0 0 0 -.608-.466.994.994 0 0 0 -.759.1l-.588.34a6.87 6.87 0 0 0 -.974-.561v-.681a1 1 0 0 0 -1-1h-4a1 1 0 0 0 -1 1v.681a6.86 6.86 0 0 0 -.973.561l-.58-.342a.99.99 0 0 0 -.758-.1 1 1 0 0 0 -.608.466l-2 3.464a1 1 0 0 0 .366 1.37l.587.339c-.016.19-.025.378-.025.563s.009.373.025.563l-.587.335a1 1 0 0 0 -.366 1.366l2 3.464a1 1 0 0 0 1.366.37l.589-.34a6.86 6.86 0 0 0 .973.561v.679a1 1 0 0 0 1 1h4a1 1 0 0 0 1-1v-.681a6.87 6.87 0 0 0 .974-.561l.325.188.451.919a1 1 0 0 0 .4.426l1.243.717a1 1 0 0 0 1.093-.062 3.971 3.971 0 0 1 .762-.451 1 1 0 0 0 .6-.916v-.422h2v.422a1 1 0 0 0 .6.916 3.971 3.971 0 0 1 .762.451 1 1 0 0 0 1.094.062l.376-.217 1 1.731-.385.223a1 1 0 0 0 -.494.973l.024.194a1.208 1.208 0 0 1 0 .489l-.024.194a1 1 0 0 0 .494.973l.385.223-1 1.732-.376-.217a1 1 0 0 0 -1.093.061 4.02 4.02 0 0 1 -.762.451 1 1 0 0 0 -.6.916v.423h-2v-.423a1 1 0 0 0 -.6-.916 4.02 4.02 0 0 1 -.762-.451 1 1 0 0 0 -1.092-.061l-.376.217-1-1.732.384-.223a1 1 0 0 0 .5-.973l-.025-.194a1.257 1.257 0 0 1 0-.489l.025-.194a1 1 0 0 0 -.5-.973l-1.251-.723a1 1 0 0 0 -1 1.733l.7.4-.7.4a1 1 0 0 0 -.366 1.366l2 3.464a1 1 0 0 0 1.366.366l.7-.4v.8a1 1 0 0 0 1 1h4a1 1 0 0 0 1-1v-.8l.7.4a1 1 0 0 0 1.352-.362z" fill="#000000" data-original="#323232" class=""/><path d="m41.8 40.157a3 3 0 1 0 -3-3 3 3 0 0 0 3 3zm0-4a1 1 0 1 1 -1 1 1 1 0 0 1 1-1z" fill="#000000" data-original="#323232" class=""/><path d="m28 35a5 5 0 1 0 5 5 5.006 5.006 0 0 0 -5-5zm2.816 4h-1.816v-1.816a3 3 0 0 1 1.816 1.816zm-3.816-1.816v1.816h-1.816a3 3 0 0 1 1.816-1.816zm-1.816 3.816h1.816v1.816a3 3 0 0 1 -1.816-1.816zm3.816 1.816v-1.816h1.816a3 3 0 0 1 -1.816 1.816z" fill="#000000" data-original="#323232" class=""/><path d="m44 26h2a1 1 0 0 0 0-2h-1.279l-1.773-5.316a1 1 0 1 0 -1.9.632l2 6a1 1 0 0 0 .952.684z" fill="#000000" data-original="#323232" class=""/><path d="m34 46h2a1 1 0 0 0 0-2h-2a1 1 0 0 0 0 2z" fill="#000000" data-original="#323232" class=""/></g></g></g></svg>
