<?xml version="1.0"?>
<svg xmlns="http://www.w3.org/2000/svg" xmlns:xlink="http://www.w3.org/1999/xlink" xmlns:svgjs="http://svgjs.com/svgjs" version="1.1" width="512" height="512" x="0" y="0" viewBox="0 0 62 62" style="enable-background:new 0 0 512 512" xml:space="preserve" class=""><g><g xmlns="http://www.w3.org/2000/svg"><g><g><path d="m45 47v6h-2-4-2v-6z" fill="#aab2bd" data-original="#aab2bd" class=""/></g><g><path d="m51 37v4c0 1.1-.9 2-2 2h-2-12-2c-1.1 0-2-.9-2-2v-4c0-1.1.9-2 2-2h2 12 2c1.1 0 2 .9 2 2z" fill="#aab2bd" data-original="#aab2bd" class=""/></g><g><path d="m39 53h4v8h-4z" fill="#ccd1d9" data-original="#ccd1d9" class=""/></g><g><path d="m47 43v4h-2-8-2v-4z" fill="#ccd1d9" data-original="#ccd1d9" class=""/></g><g><path d="m35 31h12v4h-12z" fill="#ccd1d9" data-original="#ccd1d9" class=""/></g><g><path d="m57 21h4v4h-4z" fill="#aab2bd" data-original="#aab2bd" class=""/></g><g><path d="m21 21h4v4h-4z" fill="#aab2bd" data-original="#aab2bd" class=""/></g><g><path d="m57 21v4 2h-4v-8h4z" fill="#ccd1d9" data-original="#ccd1d9" class=""/></g><g><path d="m29 23v4h-4v-2-4-2h4z" fill="#ccd1d9" data-original="#ccd1d9" class=""/></g><g><path d="m57 7v12h-4v-2c0-1.1-.9-2-2-2v-10h4c1.1 0 2 .9 2 2z" fill="#aab2bd" data-original="#aab2bd" class=""/></g><g><path d="m43 5h4v10h-4z" fill="#aab2bd" data-original="#aab2bd" class=""/></g><g><path d="m35 5h4v10h-4z" fill="#aab2bd" data-original="#aab2bd" class=""/></g><g><path d="m31 5v10c-1.1 0-2 .9-2 2v2h-4v-4-4-4c0-1.1.9-2 2-2z" fill="#aab2bd" data-original="#aab2bd" class=""/></g><g><path d="m51 31h-20c-1.105 0-2-.895-2-2v-12c0-1.105.895-2 2-2h20c1.105 0 2 .895 2 2v12c0 1.105-.895 2-2 2z" fill="#9db6ff" data-original="#ffeaa7" class=""/></g><g><path d="m43 15h4 4c1.1 0 2 .9 2 2v2h-12v-4z" fill="#1861ac" data-original="#fcd770" class=""/></g><g><path d="m29 23h8v4h-8z" fill="#1861ac" data-original="#fcd770" class=""/></g><g><path d="m51 5v10h-4v-10-2c0-.55.22-1.05.59-1.41.36-.37.86-.59 1.41-.59 1.1 0 2 .9 2 2z" fill="#ccd1d9" data-original="#ccd1d9" class=""/></g><g><path d="m43 5v10h-2-2v-10-2c0-.55.22-1.05.59-1.41.36-.37.86-.59 1.41-.59 1.1 0 2 .9 2 2z" fill="#ccd1d9" data-original="#ccd1d9" class=""/></g><g><path d="m35 5v10h-4v-10-2c0-.55.22-1.05.59-1.41.36-.37.86-.59 1.41-.59 1.1 0 2 .9 2 2z" fill="#ccd1d9" data-original="#ccd1d9" class=""/></g><g><path d="m25 7v4h-10c-2.21 0-4 1.79-4 4v16h-4s0-9.92 0-17.01c0-3.86 3.13-6.99 7-6.99z" fill="#ccd1d9" data-original="#ccd1d9" class=""/></g><g><path d="m25 11v4h-9c-.55 0-1 .45-1 1v15h-4v-16c0-2.21 1.79-4 4-4z" fill="#ccd1d9" data-original="#ccd1d9" class=""/></g><g><path d="m21 32v2c0 .55-.45 1-1 1h-1-16-1c-.55 0-1-.45-1-1v-2c0-.55.45-1 1-1h5 4 4 5c.55 0 1 .45 1 1z" fill="#0b347e" data-original="#ffc729" class=""/></g><g><path d="m19 35v6h-2-12-2v-6z" fill="#1861ac" data-original="#fcd770" class=""/></g><g><path d="m17 49-3 4h-6l-3-4z" fill="#9db6ff" data-original="#ffeaa7" class=""/></g><g><path d="m5 41h12v8h-12z" fill="#9db6ff" data-original="#ffeaa7" class=""/></g></g><path d="m62 20h-4v-1-1-11c0-1.654-1.346-3-3-3h-3v-1c0-1.654-1.346-3-3-3s-3 1.346-3 3v1h-2v-1c0-1.654-1.346-3-3-3s-3 1.346-3 3v1h-2v-1c0-1.654-1.346-3-3-3s-3 1.346-3 3v1h-3c-1.302 0-2.402.838-2.816 2h-10.184c-4.411 0-8 3.586-8 7.995v16.005h-4c-1.103 0-2 .897-2 2v2c0 1.103.897 2 2 2v6h2v7.333l3.5 4.667h7l3.5-4.667v-7.333h2v-6c1.103 0 2-.897 2-2v-2c0-1.103-.897-2-2-2h-4v-14h8v2 1 1h-4v6h4v2h4v1c0 1.654 1.346 3 3 3h3v2h-1c-1.654 0-3 1.346-3 3v4c0 1.654 1.346 3 3 3h1v4h2v6h2v8h6v-8h2v-6h2v-4h1c1.654 0 3-1.346 3-3v-4c0-1.654-1.346-3-3-3h-1v-2h3c1.654 0 3-1.346 3-3v-1h4v-2h4zm-7-14c.552 0 1 .449 1 1v11h-2v-1c0-1.302-.839-2.402-2-2.816v-8.184zm-25 18h6v2h-6zm0-2v-5c0-.551.448-1 1-1h9v4h12v6h-14v-4zm21-6c.552 0 1 .449 1 1v1h-10v-2zm-2-14c.552 0 1 .449 1 1v11h-2v-11c0-.551.448-1 1-1zm-3 4v8h-2v-8zm-5-4c.552 0 1 .449 1 1v11h-2v-11c0-.551.448-1 1-1zm-3 4v8h-2v-8zm-5-4c.552 0 1 .449 1 1v11h-2v-11c0-.551.448-1 1-1zm-25 11.995c0-3.306 2.691-5.995 6-5.995h10v2h-9c-2.757 0-5 2.243-5 5v15h-2zm-2 34.005v-2h10v2zm7.5 4h-5l-1.5-2h8zm2.5-8h-10v-2h10zm2-4h-14v-4h14zm2.001-6h-18.001v-2h18zm-4.001-20c-1.103 0-2 .897-2 2v14h-2v-15c0-1.654 1.346-3 3-3h9v2zm10-7c0-.551.448-1 1-1h3v8.184c-1.161.414-2 1.514-2 2.816v1h-2zm-4 17v-2h2v2zm4 2v-6h2v6zm16 34h-2v-6h2zm2-8h-6v-4h6zm2-6h-10v-2h10zm4-9v4c0 .551-.448 1-1 1h-16c-.552 0-1-.449-1-1v-4c0-.551.448-1 1-1h16c.552 0 1 .449 1 1zm-4-3h-10v-2h10zm5-4h-20c-.552 0-1-.449-1-1v-1h22v1c0 .551-.448 1-1 1zm5-4h-2v-6h2zm4-2h-2v-2h2z" fill="#000000" data-original="#000000" class=""/></g></g></svg>
