<svg id="Layer_3" height="512" viewBox="0 0 64 64" width="512" xmlns="http://www.w3.org/2000/svg" data-name="Layer 3"><path d="m41 18h8v2h-8z" fill="#283237"/><path d="m47 19-1-5h-2l-1 5v24h4z" fill="#283237"/><path d="m46 14-1 5v24h2v-24z" fill="#39474d"/><path d="m31 52a4 4 0 0 0 4-4v-42a4 4 0 0 0 -4-4h-22a4 4 0 0 0 -4 4v42a4 4 0 0 0 4 4z" fill="#2e77b8"/><path d="m31 2h-22a3.974 3.974 0 0 0 -.892.108 3.974 3.974 0 0 0 -.108.892v42a4 4 0 0 0 4 4h22a3.974 3.974 0 0 0 .892-.108 3.974 3.974 0 0 0 .108-.892v-42a4 4 0 0 0 -4-4z" fill="#3688cb"/><path d="m9 6h22v8h-22z" fill="#e6e6e6"/><circle cx="20" cy="29" fill="#f8d858" r="10"/><path d="m31 47a3 3 0 1 0 -5 2.221v4.779h4v-4.779a2.978 2.978 0 0 0 1-2.221z" fill="#283237"/><path d="m23 47a3 3 0 1 0 -5 2.221v4.779h4v-4.779a2.978 2.978 0 0 0 1-2.221z" fill="#a82e25"/><circle cx="12" cy="47" fill="#283237" r="3"/><path d="m41 59h-9a5.006 5.006 0 0 1 -5-5h2a3 3 0 0 0 3 3h9a3 3 0 0 0 3-3v-11h2v11a5.006 5.006 0 0 1 -5 5z" fill="#39474d"/><path d="m51 63h-27a5.006 5.006 0 0 1 -5-5v-4h2v4a3 3 0 0 0 3 3h27a3 3 0 0 0 3-3v-15h2v15a5.006 5.006 0 0 1 -5 5z" fill="#c33e37"/><path d="m44 10h2v4h-2z" fill="#596e79"/><path d="m10 6h21v7h-21z" fill="#fff"/><path d="m17 40h6l-1-22h-4z" fill="#eeab45"/><path d="m22 18h-2v17a3 3 0 0 0 2.909 2.991z" fill="#f2c14e"/><path d="m13.453 21.453a9.983 9.983 0 0 0 2.694 15.288l.784-17.248a10.009 10.009 0 0 0 -3.478 1.96z" fill="#fce95f"/><path d="m30 29a10 10 0 0 0 -6.932-9.516l.822 18.082a10.007 10.007 0 0 0 3.657-2.019 9.95 9.95 0 0 0 2.453-6.547z" fill="#fce95f"/><path d="m12 44a2.965 2.965 0 0 0 -1.554.446 2.965 2.965 0 0 0 -.446 1.554 3 3 0 0 0 3 3 2.965 2.965 0 0 0 1.554-.446 2.965 2.965 0 0 0 .446-1.554 3 3 0 0 0 -3-3z" fill="#39474d"/><path d="m23 47a3 3 0 0 0 -2.5-2.95 2.982 2.982 0 0 0 -1.5 5.171v4.779h3v-4.779a2.978 2.978 0 0 0 1-2.221z" fill="#c33e37"/><path d="m31 47a3 3 0 0 0 -2.5-2.95 2.982 2.982 0 0 0 -1.5 5.171v4.779h3v-4.779a2.978 2.978 0 0 0 1-2.221z" fill="#39474d"/><path d="m51 18h8v2h-8z" fill="#a82e25"/><path d="m57 19-1-5h-2l-1 5v24h4z" fill="#a82e25"/><path d="m56 14-1 5v24h2v-24z" fill="#c33e37"/><path d="m54 10h2v4h-2z" fill="#596e79"/></svg>