<svg id="Icons" height="512" viewBox="0 0 60 60" width="512" xmlns="http://www.w3.org/2000/svg"><rect fill="#026d63" height="50" rx="2" width="58" x="1" y="5"/><path d="m59 22h-3a1 1 0 0 0 -1 1v10a1 1 0 0 0 1 1h3z" fill="#1b443f"/><rect fill="#1b443f" height="12" rx="1" width="8" x="43" y="22"/><rect fill="#1b443f" height="8" rx="1" width="8" x="31" y="26"/><path d="m29 5h10a0 0 0 0 1 0 0v4a1 1 0 0 1 -1 1h-8a1 1 0 0 1 -1-1v-4a0 0 0 0 1 0 0z" fill="#ffc95c"/><circle cx="13" cy="45" fill="#e1efff" r="3"/><path d="m55 45h-25a1 1 0 0 1 0-2h25a1 1 0 0 1 0 2z" fill="#ffc95c"/><path d="m55 51h-25a1 1 0 0 1 0-2h25a1 1 0 0 1 0 2z" fill="#ffc95c"/><path d="m43 19a1 1 0 0 1 -1-1v-1a1 1 0 0 1 2 0v1a1 1 0 0 1 -1 1z" fill="#e1efff"/><path d="m39 19a1 1 0 0 1 -1-1v-4a1 1 0 0 1 2 0v4a1 1 0 0 1 -1 1z" fill="#ffc95c"/><g fill="#e1efff"><path d="m47 19a1 1 0 0 1 -1-1v-1a1 1 0 0 1 2 0v1a1 1 0 0 1 -1 1z"/><path d="m51 19a1 1 0 0 1 -1-1v-1a1 1 0 0 1 2 0v1a1 1 0 0 1 -1 1z"/><path d="m55 19a1 1 0 0 1 -1-1v-1a1 1 0 0 1 2 0v1a1 1 0 0 1 -1 1z"/><path d="m43 14a1 1 0 0 1 -1-1v-1a1 1 0 0 1 2 0v1a1 1 0 0 1 -1 1z"/><path d="m47 14a1 1 0 0 1 -1-1v-1a1 1 0 0 1 2 0v1a1 1 0 0 1 -1 1z"/><path d="m51 14a1 1 0 0 1 -1-1v-1a1 1 0 0 1 2 0v1a1 1 0 0 1 -1 1z"/><path d="m55 14a1 1 0 0 1 -1-1v-1a1 1 0 0 1 2 0v1a1 1 0 0 1 -1 1z"/></g><path d="m30 46a1 1 0 0 1 -1-1v-2a1 1 0 0 1 2 0v2a1 1 0 0 1 -1 1z" fill="#1b443f"/><path d="m55 46a1 1 0 0 1 -1-1v-2a1 1 0 0 1 2 0v2a1 1 0 0 1 -1 1z" fill="#1b443f"/><path d="m30 52a1 1 0 0 1 -1-1v-2a1 1 0 0 1 2 0v2a1 1 0 0 1 -1 1z" fill="#1b443f"/><path d="m55 52a1 1 0 0 1 -1-1v-2a1 1 0 0 1 2 0v2a1 1 0 0 1 -1 1z" fill="#1b443f"/><path d="m55 39h-2a1 1 0 0 1 0-2h2a1 1 0 0 1 0 2z" fill="#1b443f"/><path d="m35 21h-3a1 1 0 0 1 0-2h3a1 1 0 0 1 0 2z" fill="#ffc95c"/><path d="m33 5h2v6h-2z" fill="#026d63"/><path d="m6 52a1 1 0 0 1 -1-1v-9a1 1 0 0 1 2 0v9a1 1 0 0 1 -1 1z" fill="#ffc95c"/><path d="m6 31a1 1 0 0 1 -1-1v-16a1 1 0 0 1 1-1 1 1 0 0 1 1 1v16a1 1 0 0 1 -1 1z" fill="#1b443f"/><path d="m11 31a1 1 0 0 1 -1-1v-16a1 1 0 0 1 1-1 1 1 0 0 1 1 1v16a1 1 0 0 1 -1 1z" fill="#1b443f"/><path d="m16 31a1 1 0 0 1 -1-1v-16a1 1 0 0 1 1-1 1 1 0 0 1 1 1v16a1 1 0 0 1 -1 1z" fill="#1b443f"/><path d="m21 31a1 1 0 0 1 -1-1v-16a1 1 0 0 1 1-1 1 1 0 0 1 1 1v16a1 1 0 0 1 -1 1z" fill="#1b443f"/><path d="m26 39a1 1 0 0 1 -1-1v-24a1 1 0 0 1 1-1 1 1 0 0 1 1 1v24a1 1 0 0 1 -1 1z" fill="#1b443f"/><path d="m20 45a1 1 0 0 1 -1-1v-2a1 1 0 0 1 2 0v2a1 1 0 0 1 -1 1z" fill="#ffc95c"/><path d="m20 52a1 1 0 0 1 -1-1v-3a1 1 0 0 1 2 0v3a1 1 0 0 1 -1 1z" fill="#ffc95c"/><path d="m24 45a1 1 0 0 1 -1-1v-2a1 1 0 0 1 2 0v2a1 1 0 0 1 -1 1z" fill="#ffc95c"/><path d="m24 52a1 1 0 0 1 -1-1v-3a1 1 0 0 1 2 0v3a1 1 0 0 1 -1 1z" fill="#ffc95c"/><path d="m21 35h-15a1 1 0 0 1 0-2h15a1 1 0 0 1 0 2z" fill="#1b443f"/><path d="m21 39h-15a1 1 0 0 1 0-2h15a1 1 0 0 1 0 2z" fill="#1b443f"/><path d="m11 10h-5a1 1 0 0 1 0-2h5a1 1 0 0 1 0 2z" fill="#1b443f"/><path d="m21 10h-5a1 1 0 0 1 0-2h5a1 1 0 0 1 0 2z" fill="#1b443f"/></svg>