<?xml version="1.0"?>
<svg xmlns="http://www.w3.org/2000/svg" xmlns:xlink="http://www.w3.org/1999/xlink" xmlns:svgjs="http://svgjs.com/svgjs" version="1.1" width="512" height="512" x="0" y="0" viewBox="0 0 62 62" style="enable-background:new 0 0 512 512" xml:space="preserve" class=""><g><g xmlns="http://www.w3.org/2000/svg"><g><g><path d="m17 33h6v6h-6z" fill="#aab2bd" data-original="#aab2bd" class=""/></g><g><path d="m17 18v2c0 .55-.45 1-1 1h-3-4v-3c0-.55.45-1 1-1h6c.55 0 1 .45 1 1z" fill="#aab2bd" data-original="#aab2bd" class=""/></g><g><path d="m9 10v2c0 .55-.45 1-1 1h-3-4v-3c0-.55.45-1 1-1h6c.55 0 1 .45 1 1z" fill="#aab2bd" data-original="#aab2bd" class=""/></g><g><path d="m5 13v4c0 1.1-.9 2-2 2-.55 0-1.05-.22-1.41-.59-.37-.36-.59-.86-.59-1.41v-4z" fill="#969faa" data-original="#969faa"/></g><g><path d="m13 21v4c0 1.1-.9 2-2 2-.55 0-1.05-.22-1.41-.59-.37-.36-.59-.86-.59-1.41v-4z" fill="#969faa" data-original="#969faa"/></g><g><path d="m55 24v5h-2-2v-5c0-.55.45-1 1-1h1 1c.55 0 1 .45 1 1z" fill="#aab2bd" data-original="#aab2bd" class=""/></g><g><path d="m47 24v5h-4v-5c0-.55.45-1 1-1h1 1c.55 0 1 .45 1 1z" fill="#aab2bd" data-original="#aab2bd" class=""/></g><g><path d="m57 29h-18v32h18c2.21 0 4-1.79 4-4v-24c0-2.21-1.79-4-4-4z" fill="#b7d2ff" data-original="#ccd1d9" class=""/></g><g><path d="m27 29h6v32h-6z" fill="#b7d2ff" data-original="#ccd1d9" class=""/></g><g><path d="m53 29v8h-10v-8h4 4z" fill="#70bcfc" data-original="#e6e9ed" class=""/></g><g><path d="m27 29v32c-2.21 0-4-1.79-4-4v-6-12-6c0-2.21 1.79-4 4-4z" fill="#70bcfc" data-original="#e6e9ed" class=""/></g><g><path d="m61 53v4h-5c-.55 0-1-.45-1-1v-2c0-.55.45-1 1-1z" fill="#57a8ed" data-original="#fcd770" class=""/></g><g><path d="m61 45v4h-5c-.55 0-1-.45-1-1v-2c0-.55.45-1 1-1z" fill="#57a8ed" data-original="#fcd770" class=""/></g><g><path d="m39 29v32h-6v-32h4z" fill="#57a8ed" data-original="#fcd770" class=""/></g></g><g><path d="m57 28h-1v-4c0-1.103-.897-2-2-2v-9c0-2.757-2.243-5-5-5-1.13 0-2.162.391-3 1.026v-4.026c0-2.757-2.243-5-5-5s-5 2.243-5 5v23h-9c-2.414 0-4.434 1.721-4.899 4h-6.101v8h6v10h-7c-1.654 0-3-1.346-3-3v-19.184c1.161-.414 2-1.514 2-2.816v-3h2c1.103 0 2-.897 2-2v-2c0-1.103-.897-2-2-2h-6c-1.103 0-2 .897-2 2v7c0 1.302.839 2.402 2 2.816v19.184c0 2.757 2.243 5 5 5h7v4h-12c-3.309 0-6-2.691-6-6v-30.184c1.161-.414 2-1.514 2-2.816v-3h2c1.103 0 2-.897 2-2v-2c0-1.103-.897-2-2-2h-6c-1.103 0-2 .897-2 2v7c0 1.302.839 2.402 2 2.816v30.184c0 4.411 3.589 8 8 8h12.101c.465 2.279 2.484 4 4.899 4h30c2.757 0 5-2.243 5-5v-24c0-2.757-2.243-5-5-5zm-47-10h6v2h-6zm0 4h2v3c0 .552-.449 1-1 1s-1-.448-1-1zm-8-12h6v2h-6zm0 4h2v3c0 .552-.449 1-1 1s-1-.448-1-1zm16 24v-4h4v4zm28-14v4h-2v-4zm-2 6h8v6h-8zm8-2v-4h2v4zm-3-18c1.654 0 3 1.346 3 3v9c-1.103 0-2 .897-2 2v4h-2v-4c0-1.103-.897-2-2-2v-9c0-1.654 1.346-3 3-3zm-11-5c0-1.654 1.346-3 3-3s3 1.346 3 3v8 9c-1.103 0-2 .897-2 2v4h-4zm-10 25h4v30h-4zm6 24h4v2h-4zm4-2h-4v-2h4zm0-4h-4v-2h4zm0-4h-4v-2h4zm0-4h-4v-2h4zm0-4h-4v-2h4zm-4 22h4v2h-4zm4-26h-4v-2h4zm-14 25v-24c0-1.302.839-2.402 2-2.816v29.631c-1.161-.413-2-1.513-2-2.815zm33 3h-17v-30h2v8h12v-8h3c1.654 0 3 1.346 3 3v11h-4c-1.103 0-2 .897-2 2v2c0 1.103.897 2 2 2h4v2h-4c-1.103 0-2 .897-2 2v2c0 1.103.897 2 2 2h3.816c-.414 1.161-1.514 2-2.816 2zm3-14v2h-4v-2zm-4 10v-2h4v2z" fill="#000000" data-original="#000000" class=""/><path d="m56 40h2v2h-2z" fill="#000000" data-original="#000000" class=""/><path d="m56 32h2v2h-2z" fill="#000000" data-original="#000000" class=""/><path d="m56 36h2v2h-2z" fill="#000000" data-original="#000000" class=""/><path d="m46 32h4v2h-4z" fill="#000000" data-original="#000000" class=""/></g></g></g></svg>
