<?xml version="1.0"?>
<svg xmlns="http://www.w3.org/2000/svg" xmlns:xlink="http://www.w3.org/1999/xlink" xmlns:svgjs="http://svgjs.com/svgjs" version="1.1" width="512" height="512" x="0" y="0" viewBox="0 0 62 62" style="enable-background:new 0 0 512 512" xml:space="preserve" class=""><g><g xmlns="http://www.w3.org/2000/svg"><g><g><path d="m49 57v2c0 1.1-.9 2-2 2h-32c-1.1 0-2-.9-2-2v-2z" fill="#868a90" data-original="#aab2bd" class=""/></g><g><path d="m43 45v4 1c0 .55-.45 1-1 1h-22c-.55 0-1-.45-1-1v-1-4h2 4 4 4 4 4z" fill="#868a90" data-original="#aab2bd" class=""/></g><g><path d="m49 51v6h-36v-6c0-1.1.9-2 2-2h4v1c0 .55.45 1 1 1h22c.55 0 1-.45 1-1v-1h4c1.1 0 2 .9 2 2z" fill="#aacfff" data-original="#e6e9ed" class=""/></g><g><path d="m21 40v5h-2-16c-1.1 0-2-.9-2-2v-40c0-1.1.9-2 2-2h56c1.1 0 2 .9 2 2v40c0 1.1-.9 2-2 2h-16-2v-5c0-.55-.45-1-1-1h-2c-.55 0-1 .45-1 1v5h-4v-5c0-.55-.45-1-1-1h-2c-.55 0-1 .45-1 1v5h-4v-5c0-.55-.45-1-1-1h-2c-.55 0-1 .45-1 1zm36-8v-26c0-.55-.45-1-1-1h-11-32-7c-.55 0-1 .45-1 1v26c0 .55.45 1 1 1h7 18 14 11c.55 0 1-.45 1-1zm0 7c0-1.1-.9-2-2-2s-2 .9-2 2 .9 2 2 2 2-.9 2-2zm-8 0c0-1.1-.9-2-2-2s-2 .9-2 2 .9 2 2 2 2-.9 2-2z" fill="#aacfff" data-original="#e6e9ed" class=""/></g><g><path d="m25 40v5h-4v-5c0-.55.45-1 1-1h2c.55 0 1 .45 1 1z" fill="#86ff8d" data-original="#fcd770" class=""/></g><g><path d="m33 40v5h-4v-5c0-.55.45-1 1-1h2c.55 0 1 .45 1 1z" fill="#86ff8d" data-original="#fcd770" class=""/></g><g><path d="m41 40v5h-4v-5c0-.55.45-1 1-1h2c.55 0 1 .45 1 1z" fill="#86ff8d" data-original="#fcd770" class=""/></g><g><circle cx="55" cy="39" fill="#5c9ed6" r="2" data-original="#5cd6b3" class=""/></g><g><circle cx="47" cy="39" fill="#5c9ed6" r="2" data-original="#5cd6b3" class=""/></g><g><path d="m45 33v-18-10h11c.55 0 1 .45 1 1v26c0 .55-.45 1-1 1z" fill="#69d6f4" data-original="#69d6f4" class=""/></g><g><path d="m13 17v16h-7c-.55 0-1-.45-1-1v-26c0-.55.45-1 1-1h7z" fill="#69d6f4" data-original="#69d6f4" class=""/></g><g><path d="m13 5v12 16h18 14v-18-10z" fill="#5c9ed6" data-original="#5cd6b3" class=""/></g></g><g><path d="m59 0h-56c-1.654 0-3 1.346-3 3v40c0 1.654 1.346 3 3 3h15v2h-3c-1.654 0-3 1.346-3 3v8c0 1.654 1.346 3 3 3h32c1.654 0 3-1.346 3-3v-8c0-1.654-1.346-3-3-3h-3v-2h15c1.654 0 3-1.346 3-3v-40c0-1.654-1.346-3-3-3zm-35 44h-2v-4h2zm23 16h-32c-.551 0-1-.448-1-1v-1h34v1c0 .552-.449 1-1 1zm0-10c.551 0 1 .448 1 1v5h-34v-5c0-.552.449-1 1-1h3c0 1.103.897 2 2 2h22c1.103 0 2-.897 2-2zm-5 0h-22v-4h22zm-10-6h-2v-4h2zm8 0h-2v-4h2zm20-1c0 .552-.449 1-1 1h-17v-4c0-1.103-.897-2-2-2h-2c-1.103 0-2 .897-2 2v4h-2v-4c0-1.103-.897-2-2-2h-2c-1.103 0-2 .897-2 2v4h-2v-4c0-1.103-.897-2-2-2h-2c-1.103 0-2 .897-2 2v4h-17c-.551 0-1-.448-1-1v-40c0-.552.449-1 1-1h56c.551 0 1 .448 1 1z" fill="#000000" data-original="#000000" class=""/><path d="m47 36c-1.654 0-3 1.346-3 3s1.346 3 3 3 3-1.346 3-3-1.346-3-3-3zm0 4c-.551 0-1-.448-1-1s.449-1 1-1 1 .448 1 1-.449 1-1 1z" fill="#000000" data-original="#000000" class=""/><path d="m55 36c-1.654 0-3 1.346-3 3s1.346 3 3 3 3-1.346 3-3-1.346-3-3-3zm0 4c-.551 0-1-.448-1-1s.449-1 1-1 1 .448 1 1-.449 1-1 1z" fill="#000000" data-original="#000000" class=""/><path d="m16 40h2v2h-2z" fill="#000000" data-original="#000000" class=""/><path d="m12 40h2v2h-2z" fill="#000000" data-original="#000000" class=""/><path d="m56 4h-50c-1.103 0-2 .897-2 2v26c0 1.103.897 2 2 2h50c1.103 0 2-.897 2-2v-26c0-1.103-.897-2-2-2zm-38.618 20h16.466l-2.789 4.882-1.441-2.882h-8.153l-1.465 2.197-1.465-2.197h-2.535v2h1.465l2.535 3.803 2.535-3.803h5.847l2 4h-16.382v-14h.382zm17.683 1.901 1.4 2.099h5.535v-2h-4.465l-1.333-2h5.798v-2h-22.612l1.874-5.621 2.54 4.233 2.612-2.612h2.172l2.569 2.569 4-6 1.431 1.431h5.414v-2h-4.586l-2.569-2.569-4 6-1.431-1.431h-3.828l-1.387 1.388-3.46-5.767-2.924 8.772-2.197-4.393h-1.618v-10h30v26h-12.42zm-29.065-19.901h6v10h-4v2h4v14h-6zm40 26v-26h10l.001 26z" fill="#000000" data-original="#000000" class=""/><path d="m48 12h6v2h-6z" fill="#000000" data-original="#000000" class=""/><path d="m48 24h6v2h-6z" fill="#000000" data-original="#000000" class=""/><path d="m16 8h26v2h-26z" fill="#000000" data-original="#000000" class=""/></g></g></g></svg>
